<svg width="48" height="48" viewBox="0 0 48 48" fill="none" xmlns="http://www.w3.org/2000/svg">
<path fill-rule="evenodd" clip-rule="evenodd" d="M12.6377 3.18484C12.6377 1.4259 14.0459 0 15.7829 0H32.632C42.3992 0 47.7431 7.32402 47.9908 14.5627C48.1137 18.1519 47.004 21.8586 44.4797 24.7008C42.2385 27.2243 39.0475 28.8793 35.0938 29.2613C35.4758 33.0491 36.0225 36.1259 37.3261 38.2832C37.9495 39.3148 38.7312 40.1014 39.7744 40.6546C40.8369 41.2179 42.3446 41.6303 44.5387 41.6303C46.2757 41.6303 47.6838 43.0562 47.6838 44.8152C47.6838 46.5741 46.2757 48 44.5387 48C41.5657 48 39.0086 47.4385 36.8565 46.2975C34.6853 45.1462 33.1028 43.498 31.9606 41.6078C29.7719 37.9859 29.1743 33.3914 28.8 29.5445C28.7935 29.4781 28.7871 29.4119 28.7807 29.346H19.1826C19.1835 31.926 19.1388 34.7329 18.6286 37.0048C18.2824 38.5468 17.6475 40.2485 16.3493 41.5784C14.9563 43.0054 13.1234 43.6777 11.0652 43.6777C7.65092 43.6777 4.81084 42.524 2.82689 40.4936C0.871046 38.4919 -0.039087 35.8521 0.00128518 33.2765C0.0839601 28.002 4.13402 22.9763 11.0652 22.9763H13.0145C13.1698 20.7873 13.5216 18.5518 14.3253 16.6116C15.0233 14.9268 16.1135 13.3221 17.8112 12.1624C19.5114 11.001 21.5599 10.4644 23.8705 10.4644C26.2822 10.4644 28.3885 11.1232 30.0835 12.514C31.7304 13.8653 32.7049 15.6759 33.3233 17.4691C33.8883 19.1078 34.2314 21.0005 34.4745 22.9231C37.0073 22.685 38.707 21.6751 39.8026 20.4414C41.1045 18.9756 41.778 16.9382 41.7043 14.7833C41.5589 10.5338 38.5906 6.36967 32.632 6.36967H15.7829C14.0459 6.36967 12.6377 4.94377 12.6377 3.18484ZM28.137 22.9763C27.9572 21.6976 27.7272 20.5626 27.3845 19.5688C26.9954 18.4402 26.5536 17.8159 26.1233 17.4629C25.7411 17.1493 25.1094 16.8341 23.8705 16.8341C22.5304 16.8341 21.7778 17.1364 21.3289 17.443C20.8774 17.7514 20.4705 18.2438 20.1259 19.0756C19.6979 20.1088 19.4573 21.4184 19.3259 22.9763H28.137ZM12.8881 29.346H11.0652C7.66213 29.346 6.32047 31.4862 6.29083 33.3776C6.27504 34.3848 6.62859 35.328 7.29841 36.0135C7.94012 36.6703 9.08766 37.3081 11.0652 37.3081C12 37.3081 12.1777 37.0048 12.4949 35.5924C12.8574 33.9781 12.886 31.8972 12.8881 29.346Z" fill="url(#paint0_linear_17_37)"/>
<defs>
<linearGradient id="paint0_linear_17_37" x1="1.30233" y1="1.37705" x2="45.996" y2="45.5075" gradientUnits="userSpaceOnUse">
<stop stop-color="#DD5CD5"/>
<stop offset="1" stop-color="#D52758"/>
</linearGradient>
</defs>
</svg>
