<svg width="1200" height="675" viewBox="0 0 1200 675" fill="none" xmlns="http://www.w3.org/2000/svg">
<path fill-rule="evenodd" clip-rule="evenodd" d="M1200 0H0V675H1200V0ZM976.274 394.262V411.223H993.649V340.896C993.649 327.796 989.857 317.66 982.272 310.49C974.826 303.181 964.346 299.527 950.832 299.527C942.282 299.527 934.698 301.25 928.079 304.698C921.598 308.007 916.427 312.765 912.565 318.97C908.842 325.038 906.843 332.208 906.567 340.482H925.597C925.873 332.898 928.217 326.968 932.629 322.693C937.18 318.281 943.247 316.074 950.832 316.074C958.14 316.074 963.794 318.281 967.793 322.693C971.792 326.968 973.792 332.967 973.792 340.689V348.756C969.379 348.204 965.656 347.86 962.622 347.722C959.588 347.584 956.486 347.515 953.314 347.515C937.042 347.515 924.631 350.273 916.082 355.789C907.67 361.305 903.464 369.44 903.464 380.196C903.464 390.263 906.912 398.33 913.806 404.397C920.701 410.327 929.802 413.292 941.11 413.292C949.246 413.292 956.279 411.637 962.208 408.327C968.138 405.018 972.826 400.329 976.274 394.262ZM929.32 393.228C925.321 389.78 923.321 385.23 923.321 379.576C923.321 373.095 925.872 368.337 930.975 365.304C936.215 362.132 944.075 360.546 954.555 360.546C957.313 360.546 960.209 360.684 963.242 360.96C966.276 361.098 969.792 361.373 973.792 361.787V370.682C973.792 379.093 971.24 385.85 966.138 390.952C961.036 395.917 954.072 398.399 945.247 398.399C938.628 398.399 933.319 396.675 929.32 393.228ZM864.745 411.223H843.647V262.708H864.745V411.223ZM730.925 409.155C737.544 411.913 744.715 413.292 752.437 413.292C760.297 413.292 767.468 411.913 773.949 409.155C780.568 406.259 786.222 402.26 790.91 397.158C795.737 391.918 799.46 385.85 802.08 378.955C804.838 372.06 806.217 364.545 806.217 356.409C806.217 348.273 804.838 340.758 802.08 333.863C799.46 326.968 795.737 320.97 790.91 315.867C786.222 310.627 780.568 306.628 773.949 303.87C767.468 300.975 760.297 299.527 752.437 299.527C744.715 299.527 737.544 300.975 730.925 303.87C724.444 306.628 718.79 310.627 713.964 315.867C709.137 320.97 705.345 326.968 702.587 333.863C699.967 340.758 698.657 348.273 698.657 356.409C698.657 364.545 699.967 372.06 702.587 378.955C705.345 385.85 709.137 391.918 713.964 397.158C718.79 402.26 724.444 406.259 730.925 409.155ZM768.778 390.332C763.951 393.366 758.504 394.882 752.437 394.882C746.507 394.882 741.06 393.366 736.096 390.332C731.27 387.16 727.409 382.679 724.513 376.887C721.755 371.095 720.376 364.269 720.376 356.409C720.376 348.411 721.755 341.585 724.513 335.932C727.409 330.14 731.27 325.727 736.096 322.693C741.06 319.66 746.507 318.143 752.437 318.143C758.504 318.143 763.951 319.66 768.778 322.693C773.742 325.727 777.603 330.14 780.361 335.932C783.257 341.585 784.705 348.411 784.705 356.409C784.705 364.269 783.257 371.095 780.361 376.887C777.603 382.679 773.742 387.16 768.778 390.332ZM583.492 411.223H560.739V262.708H616.174C633.273 262.708 646.649 266.776 656.302 274.912C665.955 282.91 670.781 294.287 670.781 309.042C670.781 319.66 667.609 328.83 661.266 336.552C654.923 344.274 646.097 349.445 634.79 352.065L675.125 411.223H647.821L610.796 355.375H583.492V411.223ZM583.492 281.738V336.345H614.726C625.206 336.345 633.342 334.07 639.134 329.519C644.925 324.831 647.821 318.005 647.821 309.042C647.821 300.078 644.925 293.321 639.134 288.771C633.342 284.082 625.206 281.738 614.726 281.738H583.492ZM297.409 199C287.349 199 279.194 207.258 279.194 217.446C279.194 227.633 287.349 235.891 297.409 235.891H394.994C429.504 235.891 446.695 260.008 447.537 284.62C447.964 297.1 444.064 308.9 436.523 317.39C430.178 324.535 420.334 330.384 405.665 331.763C404.257 320.628 402.269 309.666 398.997 300.175C395.416 289.789 389.772 279.303 380.233 271.477C370.417 263.422 358.218 259.607 344.25 259.607C330.868 259.607 319.004 262.714 309.156 269.441C299.324 276.157 293.01 285.451 288.967 295.209C284.312 306.446 282.275 319.393 281.375 332.071H270.086C229.943 332.071 206.486 361.178 206.007 391.726C205.774 406.644 211.045 421.932 222.372 433.525C233.863 445.285 250.312 451.967 270.086 451.967C282.006 451.967 292.622 448.073 300.689 439.808C308.208 432.106 311.885 422.25 313.891 413.319C316.846 400.161 317.104 383.904 317.099 368.962H372.688L372.8 370.112C374.968 392.392 378.429 419.002 391.105 439.979C397.72 450.926 406.885 460.472 419.461 467.139C431.925 473.748 446.735 477 463.953 477C474.013 477 482.169 468.742 482.169 458.554C482.169 448.367 474.013 440.109 463.953 440.109C451.246 440.109 442.514 437.72 436.36 434.458C430.318 431.254 425.791 426.698 422.18 420.723C414.63 408.229 411.464 390.41 409.251 368.472C432.15 366.259 450.631 356.674 463.612 342.059C478.231 325.598 484.658 304.13 483.947 283.342C482.512 241.418 451.562 199 394.994 199H297.409ZM364.602 312.336C366.586 318.092 367.919 324.665 368.96 332.071H317.929C318.69 323.048 320.084 315.464 322.563 309.479C324.558 304.662 326.915 301.81 329.53 300.024C332.13 298.248 336.489 296.498 344.25 296.498C351.425 296.498 355.084 298.323 357.297 300.139C359.789 302.184 362.348 305.8 364.602 312.336ZM270.086 368.962H280.644C280.632 383.738 280.466 395.79 278.366 405.139C276.529 413.319 275.5 415.076 270.086 415.076C258.633 415.076 251.987 411.382 248.27 407.578C244.391 403.608 242.343 398.145 242.434 392.312C242.606 381.357 250.377 368.962 270.086 368.962Z" fill="#101010"/>
</svg>
