<svg width="60" height="60" viewBox="0 0 60 60" fill="none" xmlns="http://www.w3.org/2000/svg">
<path fill-rule="evenodd" clip-rule="evenodd" d="M15.7972 3.98104C15.7972 1.78237 17.5574 0 19.7286 0H40.79C52.999 0 59.6789 9.15503 59.9886 18.2034C60.1421 22.6899 58.755 27.3232 55.5997 30.876C52.7981 34.0303 48.8094 36.0991 43.8672 36.5766C44.3448 41.3114 45.0281 45.1574 46.6576 47.8539C47.4369 49.1435 48.414 50.1268 49.7181 50.8182C51.0461 51.5224 52.9307 52.0379 55.6733 52.0379C57.8446 52.0379 59.6048 53.8203 59.6048 56.019C59.6048 58.2176 57.8446 60 55.6733 60C51.9572 60 48.7607 59.2981 46.0707 57.8718C43.3566 56.4328 41.3785 54.3725 39.9508 52.0098C37.2149 47.4824 36.4679 41.7393 35.9999 36.9307C35.9919 36.8477 35.9839 36.7649 35.9759 36.6825H23.9782C23.9794 39.9074 23.9236 43.4161 23.2858 46.256C22.8529 48.1835 22.0594 50.3106 20.4366 51.973C18.6953 53.7567 16.4042 54.5972 13.8314 54.5972C9.56365 54.5972 6.01354 53.155 3.53361 50.617C1.08881 48.1149 -0.0488587 44.8152 0.00160647 41.5956C0.10495 35.0025 5.16752 28.7204 13.8314 28.7204H16.2681C16.4623 25.9841 16.9019 23.1897 17.9066 20.7645C18.7791 18.6585 20.1418 16.6526 22.264 15.203C24.3893 13.7513 26.9499 13.0805 29.8381 13.0805C32.8528 13.0805 35.4856 13.904 37.6043 15.6425C39.663 17.3316 40.8812 19.5948 41.6541 21.8364C42.3603 23.8847 42.7892 26.2506 43.0931 28.6539C46.2591 28.3562 48.3837 27.0939 49.7533 25.5518C51.3806 23.7194 52.2225 21.1727 52.1304 18.4791C51.9486 13.1673 48.2383 7.96209 40.79 7.96209H19.7286C17.5574 7.96209 15.7972 6.17972 15.7972 3.98104ZM35.1712 28.7204C34.9466 27.122 34.6589 25.7032 34.2306 24.461C33.7442 23.0503 33.1919 22.2699 32.6541 21.8286C32.1764 21.4366 31.3867 21.0426 29.8381 21.0426C28.1631 21.0426 27.2222 21.4205 26.6611 21.8037C26.0968 22.1892 25.5881 22.8048 25.1574 23.8445C24.6224 25.136 24.3216 26.773 24.1574 28.7204H35.1712ZM16.1102 36.6825H13.8314C9.57767 36.6825 7.90059 39.3577 7.86353 41.722C7.8438 42.981 8.28574 44.16 9.12301 45.0169C9.92515 45.8379 11.3596 46.6351 13.8314 46.6351C15 46.6351 15.2221 46.256 15.6186 44.4905C16.0718 42.4726 16.1076 39.8715 16.1102 36.6825Z" fill="url(#paint0_linear_17_36)"/>
<defs>
<linearGradient id="paint0_linear_17_36" x1="1.62791" y1="1.72131" x2="57.495" y2="56.8844" gradientUnits="userSpaceOnUse">
<stop stop-color="#9E44B3"/>
<stop offset="1" stop-color="#B12868"/>
</linearGradient>
</defs>
</svg>
