<svg width="144" height="56" viewBox="0 0 144 56" fill="none" xmlns="http://www.w3.org/2000/svg">
<path d="M136.997 40.6428V37.7143C136.402 38.7619 135.592 39.5714 134.568 40.1428C133.545 40.7143 132.33 41 130.925 41C128.973 41 127.402 40.4881 126.211 39.4643C125.021 38.4167 124.425 37.0238 124.425 35.2857C124.425 33.4286 125.152 32.0238 126.604 31.0714C128.08 30.119 130.223 29.6428 133.033 29.6428C133.58 29.6428 134.116 29.6548 134.64 29.6786C135.164 29.7024 135.806 29.7619 136.568 29.8571V28.4643C136.568 27.1309 136.223 26.0952 135.533 25.3571C134.842 24.5952 133.866 24.2143 132.604 24.2143C131.295 24.2143 130.247 24.5952 129.461 25.3571C128.699 26.0952 128.295 27.119 128.247 28.4286H124.961C125.009 27 125.354 25.7619 125.997 24.7143C126.664 23.6428 127.556 22.8214 128.675 22.25C129.818 21.6548 131.128 21.3571 132.604 21.3571C134.937 21.3571 136.747 21.9881 138.033 23.25C139.342 24.4881 139.997 26.2381 139.997 28.5V40.6428H136.997ZM127.854 35.1786C127.854 36.1548 128.199 36.9405 128.89 37.5357C129.58 38.1309 130.497 38.4286 131.64 38.4286C133.164 38.4286 134.366 38 135.247 37.1429C136.128 36.2619 136.568 35.0952 136.568 33.6428V32.1071C135.878 32.0357 135.271 31.9881 134.747 31.9643C134.223 31.9167 133.723 31.8928 133.247 31.8928C131.437 31.8928 130.08 32.1667 129.175 32.7143C128.295 33.2381 127.854 34.0595 127.854 35.1786Z" fill="white"/>
<path d="M117.74 40.6429H114.097V15H117.74V40.6429Z" fill="white"/>
<path d="M98.3488 41C97.0155 41 95.7774 40.7619 94.6345 40.2857C93.5155 39.7857 92.5393 39.0952 91.7059 38.2143C90.8726 37.3095 90.2178 36.2619 89.7417 35.0714C89.2893 33.8809 89.0631 32.5833 89.0631 31.1786C89.0631 29.7738 89.2893 28.4762 89.7417 27.2857C90.2178 26.0952 90.8726 25.0595 91.7059 24.1786C92.5393 23.2738 93.5155 22.5833 94.6345 22.1071C95.7774 21.6071 97.0155 21.3571 98.3488 21.3571C99.7059 21.3571 100.944 21.6071 102.063 22.1071C103.206 22.5833 104.182 23.2738 104.992 24.1786C105.825 25.0595 106.468 26.0952 106.92 27.2857C107.396 28.4762 107.635 29.7738 107.635 31.1786C107.635 32.5833 107.396 33.8809 106.92 35.0714C106.468 36.2619 105.825 37.3095 104.992 38.2143C104.182 39.0952 103.206 39.7857 102.063 40.2857C100.944 40.7619 99.7059 41 98.3488 41ZM98.3488 37.8214C99.3964 37.8214 100.337 37.5595 101.17 37.0357C102.027 36.4881 102.694 35.7143 103.17 34.7143C103.67 33.7143 103.92 32.5357 103.92 31.1786C103.92 29.7976 103.67 28.619 103.17 27.6428C102.694 26.6428 102.027 25.8809 101.17 25.3571C100.337 24.8333 99.3964 24.5714 98.3488 24.5714C97.325 24.5714 96.3845 24.8333 95.5274 25.3571C94.694 25.8809 94.0274 26.6428 93.5274 27.6428C93.0512 28.619 92.8131 29.7976 92.8131 31.1786C92.8131 32.5357 93.0512 33.7143 93.5274 34.7143C94.0274 35.7143 94.694 36.4881 95.5274 37.0357C96.3845 37.5595 97.325 37.8214 98.3488 37.8214Z" fill="white"/>
<path d="M69.1786 40.6429H65.25V15H74.8214C77.7738 15 80.0833 15.7024 81.75 17.1071C83.4167 18.4881 84.25 20.4524 84.25 23C84.25 24.8333 83.7024 26.4167 82.6071 27.75C81.5119 29.0833 79.9881 29.9762 78.0357 30.4286L85 40.6429H80.2857L73.8929 31H69.1786V40.6429ZM69.1786 18.2857V27.7143H74.5714C76.381 27.7143 77.7857 27.3214 78.7857 26.5357C79.7857 25.7262 80.2857 24.5476 80.2857 23C80.2857 21.4524 79.7857 20.2857 78.7857 19.5C77.7857 18.6905 76.381 18.2857 74.5714 18.2857H69.1786Z" fill="white"/>
<path fill-rule="evenodd" clip-rule="evenodd" d="M16.6377 7.18484C16.6377 5.4259 18.0459 4 19.7829 4H36.632C46.3992 4 51.7431 11.324 51.9908 18.5627C52.1137 22.1519 51.004 25.8586 48.4797 28.7008C46.2385 31.2243 43.0475 32.8793 39.0938 33.2613C39.4758 37.0491 40.0225 40.1259 41.3261 42.2832C41.9495 43.3148 42.7312 44.1014 43.7744 44.6546C44.8369 45.2179 46.3446 45.6303 48.5387 45.6303C50.2757 45.6303 51.6838 47.0562 51.6838 48.8152C51.6838 50.5741 50.2757 52 48.5387 52C45.5657 52 43.0086 51.4385 40.8565 50.2975C38.6853 49.1462 37.1028 47.498 35.9606 45.6078C33.7719 41.9859 33.1743 37.3914 32.8 33.5445C32.7935 33.4781 32.7871 33.4119 32.7807 33.346H23.1826C23.1835 35.926 23.1388 38.7329 22.6286 41.0048C22.2824 42.5468 21.6475 44.2485 20.3493 45.5784C18.9563 47.0054 17.1234 47.6777 15.0652 47.6777C11.6509 47.6777 8.81084 46.524 6.82689 44.4936C4.87105 42.4919 3.96091 39.8521 4.00129 37.2765C4.08396 32.002 8.13402 26.9763 15.0652 26.9763H17.0145C17.1698 24.7873 17.5216 22.5518 18.3253 20.6116C19.0233 18.9268 20.1135 17.3221 21.8112 16.1624C23.5114 15.001 25.5599 14.4644 27.8705 14.4644C30.2822 14.4644 32.3885 15.1232 34.0835 16.514C35.7304 17.8653 36.7049 19.6759 37.3233 21.4691C37.8883 23.1078 38.2314 25.0005 38.4745 26.9231C41.0073 26.685 42.707 25.6751 43.8026 24.4414C45.1045 22.9756 45.778 20.9382 45.7043 18.7833C45.5589 14.5338 42.5906 10.3697 36.632 10.3697H19.7829C18.0459 10.3697 16.6377 8.94377 16.6377 7.18484ZM32.137 26.9763C31.9572 25.6976 31.7272 24.5626 31.3845 23.5688C30.9954 22.4402 30.5536 21.8159 30.1233 21.4629C29.7411 21.1493 29.1094 20.8341 27.8705 20.8341C26.5304 20.8341 25.7778 21.1364 25.3289 21.443C24.8774 21.7514 24.4705 22.2438 24.1259 23.0756C23.6979 24.1088 23.4573 25.4184 23.3259 26.9763H32.137ZM16.8881 33.346H15.0652C11.6621 33.346 10.3205 35.4862 10.2908 37.3776C10.275 38.3848 10.6286 39.328 11.2984 40.0135C11.9401 40.6703 13.0877 41.3081 15.0652 41.3081C16 41.3081 16.1777 41.0048 16.4949 39.5924C16.8574 37.9781 16.886 35.8972 16.8881 33.346Z" fill="url(#paint0_linear_17_74)"/>
<defs>
<linearGradient id="paint0_linear_17_74" x1="5.30233" y1="5.37705" x2="49.996" y2="49.5075" gradientUnits="userSpaceOnUse">
<stop stop-color="#DD5CD5"/>
<stop offset="1" stop-color="#D52758"/>
</linearGradient>
</defs>
</svg>
